_________________________  Visit us at _________________________
  
http://p2pdl.com  ____________________________  http://p2pdl.com


Jack the Giant Slayer 2013 BRRip 480p x264 - VYTO


Genre: Adventure | Fantasy
Plot: The ancient war between humans and a race of giants is reignited when Jack, a young farmhand fighting
for a kingdom and the love of a princess, opens a gateway between the two worlds.
Director: Bryan Singer 
Stars: Nicholas Hoult, Ewan McGregor, Stanley Tucci.
Rated: PG-13 for intense scenes of fantasy action violence, some frightening images and brief language.


Info: 
http://www.imdb.com/title/tt1351685/

Trailer:


Format                         : MPEG-4
File size                      : 361 MiB
Duration                       : 1h 54mn
Overall bit rate mode          : Variable
Overall bit rate               : 442 Kbps
Source                         : 720p.BluRay.x264-SPARKS

Video
Format                         : AVC
Bit rate                       : 399 Kbps
Width                          : 720 pixels
Height                         : 304 pixels
Display aspect ratio           : 2.35:1
Frame rate mode                : Constant
Frame rate                     : 23.976 fps
Stream size                    : 326 MiB (90%)
Writing library                : x264 core 130 r2273

Audio
Format                         : AAC
Bit rate                       : 40.0 Kbps
Channel(s)                     : 2 channels
Channel positions              : Front: L R
Sampling rate                  : 48.0 KHz
Stream size                    : 32.7 MiB (9%)
Language                       : English

Subtitle                       : Yes(English)

 
http://ultraimg.com/images/ywNe.png 
http://ultraimg.com/images/Yz7Vc.png 
http://ultraimg.com/images/7dKnq.png 
http://ultraimg.com/images/FESxW.png 
http://ultraimg.com/images/YyaoB.png 
http://ultraimg.com/images/pYQU4.png 
http://ultraimg.com/images/CnBAl.png 
http://ultraimg.com/images/wXsfB.png


----------------------------------------------------------------------------------------------------


Encoded using revolutionary 10bit encoding, which enables us to provide you more crispier 
and sharper images at small sizes, just make sure you follow our instructions without a fault.
Recommend to you to use latest version of VLC player. Install K-Lite Codec Pack or shark007 codecs
in case of any kind of problem in playback (For non-VLC Media Player users). Alternatively, install
Core AVC codecs, the fastest decoder that there is coupled with Community Center Codec Pack and play
on Windows Media Player Classic. Check sample to be sure.
Enjoy!

Encoder Notes:Looking For Early Access To Anything You Can Provide DVDScr, R5, DVDR, BluRay, Direct
Audio, Music Releases and Seedboxes. We require dedicated servers, so as to do more 
and fast releases of movies.
If You Got anything to offer please contact us at "contact@p2pdl.com".

Face book Fan Page:   
http://www.fb.me/p2pdl